<mxfile host="app.diagrams.net" modified="2022-08-26T08:14:01.081Z" agent="5.0 (Windows NT 10.0; Win64; x64) AppleWebKit/537.36 (KHTML, like Gecko) Chrome/104.0.0.0 Safari/537.36" etag="2xYwDeRKdKN1mFZBKGBc" version="20.2.7" type="github">
  <diagram id="kgpKYQtTHZ0yAKxKKP6v" name="Page-1">
    <mxGraphModel dx="1422" dy="698" grid="1" gridSize="10" guides="1" tooltips="1" connect="1" arrows="1" fold="1" page="1" pageScale="1" pageWidth="850" pageHeight="1100" math="0" shadow="0">
      <root>
        <mxCell id="0" />
        <mxCell id="1" parent="0" />
        <mxCell id="3nuBFxr9cyL0pnOWT2aG-1" value="requestor" style="shape=umlLifeline;perimeter=lifelinePerimeter;container=1;collapsible=0;recursiveResize=0;rounded=0;shadow=0;strokeWidth=1;" parent="1" vertex="1">
          <mxGeometry x="120" y="80" width="100" height="300" as="geometry" />
        </mxCell>
        <mxCell id="3nuBFxr9cyL0pnOWT2aG-2" value="" style="points=[];perimeter=orthogonalPerimeter;rounded=0;shadow=0;strokeWidth=1;" parent="3nuBFxr9cyL0pnOWT2aG-1" vertex="1">
          <mxGeometry x="45" y="70" width="10" height="190" as="geometry" />
        </mxCell>
        <mxCell id="3nuBFxr9cyL0pnOWT2aG-5" value="X server" style="shape=umlLifeline;perimeter=lifelinePerimeter;container=1;collapsible=0;recursiveResize=0;rounded=0;shadow=0;strokeWidth=1;" parent="1" vertex="1">
          <mxGeometry x="300" y="80" width="100" height="300" as="geometry" />
        </mxCell>
        <mxCell id="3nuBFxr9cyL0pnOWT2aG-6" value="" style="points=[];perimeter=orthogonalPerimeter;rounded=0;shadow=0;strokeWidth=1;" parent="3nuBFxr9cyL0pnOWT2aG-5" vertex="1">
          <mxGeometry x="45" y="80" width="10" height="160" as="geometry" />
        </mxCell>
        <mxCell id="3nuBFxr9cyL0pnOWT2aG-8" value="XConvertSelection" style="verticalAlign=bottom;endArrow=block;entryX=0;entryY=0;shadow=0;strokeWidth=1;" parent="1" source="3nuBFxr9cyL0pnOWT2aG-2" target="3nuBFxr9cyL0pnOWT2aG-6" edge="1">
          <mxGeometry relative="1" as="geometry">
            <mxPoint x="275" y="160" as="sourcePoint" />
          </mxGeometry>
        </mxCell>
        <mxCell id="2Qzsf4mQtf3tdK6flBiu-1" value="owner" style="shape=umlLifeline;perimeter=lifelinePerimeter;container=1;collapsible=0;recursiveResize=0;rounded=0;shadow=0;strokeWidth=1;" vertex="1" parent="1">
          <mxGeometry x="500" y="80" width="100" height="300" as="geometry" />
        </mxCell>
        <mxCell id="2Qzsf4mQtf3tdK6flBiu-2" value="" style="points=[];perimeter=orthogonalPerimeter;rounded=0;shadow=0;strokeWidth=1;" vertex="1" parent="2Qzsf4mQtf3tdK6flBiu-1">
          <mxGeometry x="45" y="80" width="10" height="160" as="geometry" />
        </mxCell>
        <mxCell id="2Qzsf4mQtf3tdK6flBiu-3" value="SelectionRequest" style="verticalAlign=bottom;endArrow=block;shadow=0;strokeWidth=1;exitX=1;exitY=0.075;exitDx=0;exitDy=0;exitPerimeter=0;" edge="1" parent="1" source="3nuBFxr9cyL0pnOWT2aG-6" target="2Qzsf4mQtf3tdK6flBiu-1">
          <mxGeometry relative="1" as="geometry">
            <mxPoint x="185" y="170.0000000000001" as="sourcePoint" />
            <mxPoint x="355" y="170.0000000000001" as="targetPoint" />
          </mxGeometry>
        </mxCell>
        <mxCell id="2Qzsf4mQtf3tdK6flBiu-4" value="SelectionNotify" style="verticalAlign=bottom;endArrow=block;shadow=0;strokeWidth=1;exitX=0.1;exitY=0.406;exitDx=0;exitDy=0;exitPerimeter=0;entryX=1.3;entryY=0.384;entryDx=0;entryDy=0;entryPerimeter=0;" edge="1" parent="1" source="3nuBFxr9cyL0pnOWT2aG-6" target="3nuBFxr9cyL0pnOWT2aG-2">
          <mxGeometry relative="1" as="geometry">
            <mxPoint x="355" y="311.04999999999995" as="sourcePoint" />
            <mxPoint x="185" y="311.04999999999995" as="targetPoint" />
          </mxGeometry>
        </mxCell>
        <mxCell id="2Qzsf4mQtf3tdK6flBiu-6" value="ChangeProperty" style="verticalAlign=bottom;endArrow=block;shadow=0;strokeWidth=1;" edge="1" parent="1" source="2Qzsf4mQtf3tdK6flBiu-1">
          <mxGeometry relative="1" as="geometry">
            <mxPoint x="513" y="201.03999999999996" as="sourcePoint" />
            <mxPoint x="350" y="200" as="targetPoint" />
          </mxGeometry>
        </mxCell>
        <mxCell id="3nuBFxr9cyL0pnOWT2aG-9" value="GetProperty" style="verticalAlign=bottom;endArrow=block;shadow=0;strokeWidth=1;exitX=1.3;exitY=0.616;exitDx=0;exitDy=0;exitPerimeter=0;entryX=-0.1;entryY=0.675;entryDx=0;entryDy=0;entryPerimeter=0;" parent="1" source="3nuBFxr9cyL0pnOWT2aG-2" target="3nuBFxr9cyL0pnOWT2aG-6" edge="1">
          <mxGeometry relative="1" as="geometry">
            <mxPoint x="170" y="200" as="sourcePoint" />
            <mxPoint x="240" y="200" as="targetPoint" />
          </mxGeometry>
        </mxCell>
      </root>
    </mxGraphModel>
  </diagram>
</mxfile>
